<svg xmlns="http://www.w3.org/2000/svg" viewBox="0 0 256 256" clip-path="url(#clip)" width="512" height="512"><defs><clipPath id="clip" clipPathUnits="objectBoundingBox"><rect x="0" y="0" width="256" height="256"/></clipPath></defs><rect x="0" y="0" width="256" height="256" fill="rgb(255, 255, 255)"/><path d="M10,175L119,279L298,144Z" fill="rgb(68, 92, 183)" fill-opacity="0.65"/><path d="M-112,196L264,158L175,-75Z" fill="rgb(174, 185, 223)" fill-opacity="0.99"/><path d="M218,211L177,20L249,94Z" fill="rgb(0, 15, 156)" fill-opacity="0.33"/><path d="M168,130L147,154L139,124Z" fill="rgb(95, 109, 186)" fill-opacity="0.76"/><path d="M68,78L47,176L206,91Z" fill="rgb(255, 252, 246)" fill-opacity="0.67"/><path d="M195,230L240,157L55,221Z" fill="rgb(79, 103, 191)" fill-opacity="0.63"/><path d="M231,190L255,114L260,243Z" fill="rgb(255, 255, 255)" fill-opacity="0.93"/><path d="M116,119L111,154L83,132Z" fill="rgb(95, 108, 185)" fill-opacity="0.72"/><path d="M157,244L236,264L-2,250Z" fill="rgb(252, 253, 254)" fill-opacity="1.00"/><path d="M19,-9L346,7L202,24Z" fill="rgb(254, 254, 254)" fill-opacity="0.95"/><path d="M94,245L15,167L16,84Z" fill="rgb(100, 123, 200)" fill-opacity="0.68"/><path d="M88,166L211,175L122,135Z" fill="rgb(255, 254, 247)" fill-opacity="0.64"/><path d="M154,77L209,137L175,188Z" fill="rgb(252, 250, 246)" fill-opacity="0.75"/><path d="M198,175L206,142L158,185Z" fill="rgb(253, 250, 245)" fill-opacity="0.53"/><path d="M154,6L241,107L35,48Z" fill="rgb(85, 111, 196)" fill-opacity="0.49"/><path d="M167,133L154,155L147,117Z" fill="rgb(79, 95, 181)" fill-opacity="0.44"/><path d="M147,255L-47,278L73,234Z" fill="rgb(254, 254, 254)" fill-opacity="0.96"/><path d="M149,121L137,135L142,148Z" fill="rgb(68, 83, 174)" fill-opacity="0.44"/><path d="M53,130L67,180L98,181Z" fill="rgb(251, 249, 246)" fill-opacity="0.72"/><path d="M248,116L240,170L201,136Z" fill="rgb(68, 97, 187)" fill-opacity="0.50"/><path d="M-156,70L-1,100L32,216Z" fill="rgb(255, 255, 255)" fill-opacity="0.93"/><path d="M173,4L215,-4L238,75Z" fill="rgb(254, 254, 254)" fill-opacity="0.98"/><path d="M93,122L122,136L92,151Z" fill="rgb(86, 101, 183)" fill-opacity="0.52"/><path d="M80,61L18,78L44,149Z" fill="rgb(79, 104, 195)" fill-opacity="0.44"/><path d="M42,-48L56,29L116,9Z" fill="rgb(254, 254, 254)" fill-opacity="0.94"/><path d="M28,54L-70,174L8,123Z" fill="rgb(253, 253, 254)" fill-opacity="0.97"/><path d="M151,169L96,216L182,157Z" fill="rgb(91, 108, 189)" fill-opacity="0.71"/><path d="M244,110L320,176L237,80Z" fill="rgb(251, 252, 253)" fill-opacity="0.93"/><path d="M16,89L130,67L56,33Z" fill="rgb(131, 148, 210)" fill-opacity="0.78"/><path d="M206,148L188,84L147,69Z" fill="rgb(252, 250, 246)" fill-opacity="0.63"/><path d="M177,69L231,110L196,105Z" fill="rgb(95, 118, 196)" fill-opacity="0.60"/><path d="M302,121L248,148L244,110Z" fill="rgb(252, 252, 253)" fill-opacity="0.97"/><path d="M210,222L153,244L198,292Z" fill="rgb(253, 253, 254)" fill-opacity="0.99"/><path d="M191,155L155,174L171,183Z" fill="rgb(216, 217, 233)" fill-opacity="0.63"/><path d="M30,194L162,166L129,248Z" fill="rgb(94, 114, 193)" fill-opacity="0.67"/><path d="M152,75L74,86L159,124Z" fill="rgb(255, 255, 249)" fill-opacity="0.57"/><path d="M88,143L116,146L104,117Z" fill="rgb(108, 121, 191)" fill-opacity="0.62"/><path d="M83,162L110,179L140,178Z" fill="rgb(98, 112, 188)" fill-opacity="0.87"/><path d="M82,237L28,189L45,213Z" fill="rgb(94, 113, 193)" fill-opacity="0.62"/><path d="M63,227L82,236L39,260Z" fill="rgb(253, 253, 254)" fill-opacity="0.89"/><path d="M52,120L82,154L112,80Z" fill="rgb(255, 254, 249)" fill-opacity="0.59"/><path d="M220,199L197,254L248,166Z" fill="rgb(252, 252, 253)" fill-opacity="0.81"/><path d="M101,85L155,164L98,113Z" fill="rgb(245, 245, 245)" fill-opacity="0.88"/><path d="M70,178L60,105L49,163Z" fill="rgb(247, 246, 246)" fill-opacity="0.75"/><path d="M206,219L156,187L243,159Z" fill="rgb(95, 117, 196)" fill-opacity="0.80"/><path d="M207,41L243,87L191,36Z" fill="rgb(31, 66, 180)" fill-opacity="0.36"/><path d="M111,71L140,74L87,83Z" fill="rgb(87, 105, 189)" fill-opacity="0.50"/><path d="M94,14L47,43L142,11Z" fill="rgb(115, 136, 206)" fill-opacity="0.59"/><path d="M104,163L84,162L75,113Z" fill="rgb(249, 248, 246)" fill-opacity="0.74"/><path d="M125,-19L142,12L196,19Z" fill="rgb(253, 253, 254)" fill-opacity="0.97"/></svg>