<svg xmlns="http://www.w3.org/2000/svg" viewBox="0 0 256 256" clip-path="url(#clip)" width="512" height="512"><defs><clipPath id="clip" clipPathUnits="objectBoundingBox"><rect x="0" y="0" width="256" height="256"/></clipPath></defs><rect x="0" y="0" width="256" height="256" fill="rgb(245, 245, 245)"/><path d="M15,56L128,-24L271,81Z" fill="rgb(27, 27, 27)" fill-opacity="0.76"/><path d="M308,63L156,193L172,306Z" fill="rgb(3, 3, 3)" fill-opacity="0.70"/><path d="M-34,138L53,23L67,253Z" fill="rgb(48, 48, 48)" fill-opacity="0.80"/><path d="M303,124L194,47L217,173Z" fill="rgb(55, 55, 55)" fill-opacity="0.96"/><path d="M30,164L103,189L84,218Z" fill="rgb(17, 17, 17)" fill-opacity="0.71"/><path d="M213,5L257,110L259,-39Z" fill="rgb(252, 252, 252)" fill-opacity="0.99"/><path d="M216,35L173,9L266,113Z" fill="rgb(41, 41, 41)" fill-opacity="0.62"/><path d="M98,225L53,221L90,278Z" fill="rgb(44, 44, 44)" fill-opacity="0.80"/><path d="M156,188L214,146L186,179Z" fill="rgb(246, 246, 246)" fill-opacity="0.79"/><path d="M43,131L61,174L68,51Z" fill="rgb(245, 245, 245)" fill-opacity="0.94"/><path d="M181,5L218,-32L72,3Z" fill="rgb(242, 242, 242)" fill-opacity="0.96"/><path d="M280,249L150,264L222,225Z" fill="rgb(253, 253, 253)" fill-opacity="0.96"/><path d="M191,53L85,106L202,72Z" fill="rgb(251, 251, 251)" fill-opacity="0.96"/><path d="M18,203L-6,137L4,311Z" fill="rgb(253, 253, 253)" fill-opacity="1.00"/><path d="M238,201L253,159L210,227Z" fill="rgb(41, 41, 41)" fill-opacity="0.76"/><path d="M195,19L97,74L54,22Z" fill="rgb(17, 17, 17)" fill-opacity="0.45"/><path d="M203,186L210,125L240,196Z" fill="rgb(51, 51, 51)" fill-opacity="0.94"/><path d="M66,224L53,176L34,182Z" fill="rgb(255, 255, 255)" fill-opacity="0.68"/><path d="M211,109L198,92L199,60Z" fill="rgb(40, 40, 40)" fill-opacity="0.66"/><path d="M22,60L43,30L-24,28Z" fill="rgb(252, 252, 252)" fill-opacity="0.96"/><path d="M130,64L161,70L117,68Z" fill="rgb(255, 255, 255)" fill-opacity="0.60"/><path d="M94,207L103,189L25,172Z" fill="rgb(39, 39, 39)" fill-opacity="0.73"/><path d="M51,236L93,256L85,316Z" fill="rgb(248, 248, 248)" fill-opacity="0.99"/><path d="M46,22L107,4L31,-74Z" fill="rgb(252, 252, 252)" fill-opacity="0.96"/><path d="M125,0L226,49L149,64Z" fill="rgb(44, 44, 44)" fill-opacity="0.72"/><path d="M152,-8L163,8L183,15Z" fill="rgb(255, 255, 255)" fill-opacity="0.57"/><path d="M38,183L65,200L64,225Z" fill="rgb(253, 253, 253)" fill-opacity="0.71"/><path d="M142,97L77,58L58,57Z" fill="rgb(255, 255, 255)" fill-opacity="0.81"/><path d="M64,84L3,160L19,54Z" fill="rgb(11, 11, 11)" fill-opacity="0.46"/><path d="M246,184L159,254L163,185Z" fill="rgb(34, 34, 34)" fill-opacity="0.58"/><path d="M24,207L50,235L46,190Z" fill="rgb(37, 37, 37)" fill-opacity="0.64"/><path d="M203,98L197,90L200,80Z" fill="rgb(17, 17, 17)" fill-opacity="0.54"/><path d="M11,72L-5,136L5,-29Z" fill="rgb(252, 252, 252)" fill-opacity="0.97"/><path d="M188,248L325,279L234,209Z" fill="rgb(254, 254, 254)" fill-opacity="0.92"/><path d="M68,210L102,228L102,205Z" fill="rgb(252, 252, 252)" fill-opacity="0.90"/><path d="M57,75L60,19L4,94Z" fill="rgb(45, 45, 45)" fill-opacity="0.65"/><path d="M-14,106L51,127L23,207Z" fill="rgb(17, 17, 17)" fill-opacity="0.43"/><path d="M28,158L68,173L64,199Z" fill="rgb(44, 44, 44)" fill-opacity="0.54"/><path d="M239,52L239,64L222,48Z" fill="rgb(238, 238, 238)" fill-opacity="0.50"/><path d="M93,219L211,128L205,99Z" fill="rgb(255, 255, 255)" fill-opacity="0.89"/><path d="M197,214L201,163L211,138Z" fill="rgb(51, 51, 51)" fill-opacity="0.77"/><path d="M192,186L162,202L151,186Z" fill="rgb(40, 40, 40)" fill-opacity="0.60"/><path d="M193,258L79,260L113,242Z" fill="rgb(255, 255, 255)" fill-opacity="0.92"/><path d="M251,94L258,62L258,135Z" fill="rgb(255, 255, 255)" fill-opacity="0.65"/><path d="M138,2L62,19L156,69Z" fill="rgb(49, 49, 49)" fill-opacity="0.77"/><path d="M72,248L55,226L100,223Z" fill="rgb(27, 27, 27)" fill-opacity="0.50"/><path d="M117,65L147,66L191,175Z" fill="rgb(254, 254, 254)" fill-opacity="0.98"/><path d="M58,109L60,54L107,72Z" fill="rgb(255, 255, 255)" fill-opacity="0.59"/><path d="M97,205L67,208L46,154Z" fill="rgb(39, 39, 39)" fill-opacity="0.44"/><path d="M19,-121L5,84L26,53Z" fill="rgb(254, 254, 254)" fill-opacity="0.98"/><path d="M40,188L51,202L22,206Z" fill="rgb(46, 46, 46)" fill-opacity="0.69"/><path d="M70,246L18,199L76,225Z" fill="rgb(47, 47, 47)" fill-opacity="0.70"/><path d="M207,149L131,196L194,172Z" fill="rgb(252, 252, 252)" fill-opacity="0.93"/><path d="M159,200L160,220L52,158Z" fill="rgb(253, 253, 253)" fill-opacity="1.00"/><path d="M52,156L59,170L47,138Z" fill="rgb(255, 255, 255)" fill-opacity="0.45"/><path d="M35,180L54,206L60,192Z" fill="rgb(255, 255, 255)" fill-opacity="0.66"/><path d="M196,20L215,-113L243,62Z" fill="rgb(254, 254, 254)" fill-opacity="1.00"/><path d="M159,196L96,326L96,207Z" fill="rgb(254, 254, 254)" fill-opacity="1.00"/><path d="M43,112L51,161L-17,135Z" fill="rgb(48, 48, 48)" fill-opacity="0.65"/><path d="M10,83L83,47L23,56Z" fill="rgb(44, 44, 44)" fill-opacity="0.55"/><path d="M241,204L258,138L251,232Z" fill="rgb(254, 254, 254)" fill-opacity="0.63"/><path d="M226,210L251,172L246,73Z" fill="rgb(45, 45, 45)" fill-opacity="0.58"/><path d="M175,252L209,232L230,188Z" fill="rgb(35, 35, 35)" fill-opacity="0.43"/><path d="M222,220L257,227L265,158Z" fill="rgb(254, 254, 254)" fill-opacity="0.84"/><path d="M49,100L68,177L50,154Z" fill="rgb(255, 255, 255)" fill-opacity="0.58"/><path d="M181,179L246,153L160,201Z" fill="rgb(51, 51, 51)" fill-opacity="0.89"/><path d="M87,4L46,32L-101,-13Z" fill="rgb(254, 254, 254)" fill-opacity="0.96"/><path d="M76,250L-23,266L48,232Z" fill="rgb(254, 254, 254)" fill-opacity="0.94"/><path d="M1,108L64,19L58,65Z" fill="rgb(51, 51, 51)" fill-opacity="0.89"/><path d="M158,23L185,17L141,3Z" fill="rgb(7, 7, 7)" fill-opacity="0.33"/><path d="M199,78L181,181L147,66Z" fill="rgb(254, 254, 254)" fill-opacity="0.91"/><path d="M134,7L124,2L105,7Z" fill="rgb(45, 45, 45)" fill-opacity="0.56"/><path d="M63,52L99,70L148,39Z" fill="rgb(51, 51, 51)" fill-opacity="0.78"/><path d="M260,111L248,87L239,50Z" fill="rgb(255, 255, 255)" fill-opacity="0.69"/><path d="M40,220L14,70L0,119Z" fill="rgb(51, 51, 51)" fill-opacity="0.86"/><path d="M211,33L187,17L158,71Z" fill="rgb(45, 45, 45)" fill-opacity="0.58"/><path d="M210,147L240,69L246,80Z" fill="rgb(47, 47, 47)" fill-opacity="0.66"/><path d="M242,190L232,207L280,235Z" fill="rgb(253, 253, 253)" fill-opacity="0.64"/><path d="M100,186L72,203L105,188Z" fill="rgb(58, 58, 58)" fill-opacity="0.77"/><path d="M211,140L48,108L47,138Z" fill="rgb(255, 255, 255)" fill-opacity="0.87"/><path d="M60,193L55,214L82,225Z" fill="rgb(255, 255, 255)" fill-opacity="0.45"/><path d="M96,250L96,229L66,244Z" fill="rgb(38, 38, 38)" fill-opacity="0.70"/><path d="M239,66L223,44L317,-118Z" fill="rgb(253, 253, 253)" fill-opacity="0.99"/><path d="M46,60L-9,136L46,182Z" fill="rgb(51, 51, 51)" fill-opacity="1.00"/><path d="M195,53L165,121L199,74Z" fill="rgb(254, 254, 254)" fill-opacity="0.73"/><path d="M56,187L30,182L38,190Z" fill="rgb(246, 246, 246)" fill-opacity="0.45"/><path d="M10,184L29,178L72,234Z" fill="rgb(49, 49, 49)" fill-opacity="0.74"/><path d="M236,176L194,53L228,48Z" fill="rgb(47, 47, 47)" fill-opacity="0.66"/><path d="M244,187L221,221L187,178Z" fill="rgb(53, 53, 53)" fill-opacity="0.78"/><path d="M107,66L58,83L173,186Z" fill="rgb(255, 255, 255)" fill-opacity="0.76"/><path d="M28,50L106,36L11,78Z" fill="rgb(51, 51, 51)" fill-opacity="0.70"/><path d="M26,182L53,205L22,204Z" fill="rgb(51, 51, 51)" fill-opacity="0.71"/><path d="M55,179L51,151L31,182Z" fill="rgb(52, 52, 52)" fill-opacity="0.79"/><path d="M183,15L161,65L103,65Z" fill="rgb(50, 50, 50)" fill-opacity="0.86"/><path d="M137,2L171,9L282,-14Z" fill="rgb(254, 254, 254)" fill-opacity="0.99"/><path d="M50,105L58,89L27,109Z" fill="rgb(47, 47, 47)" fill-opacity="0.49"/><path d="M25,59L58,75L45,120Z" fill="rgb(51, 51, 51)" fill-opacity="0.78"/><path d="M244,186L191,172L253,161Z" fill="rgb(51, 51, 51)" fill-opacity="0.71"/><path d="M163,253L223,218L159,224Z" fill="rgb(49, 49, 49)" fill-opacity="0.74"/><path d="M23,204L-68,227L67,272Z" fill="rgb(255, 255, 255)" fill-opacity="0.93"/></svg>