<svg xmlns="http://www.w3.org/2000/svg" viewBox="0 0 256 256" clip-path="url(#clip)" width="500" height="500"><defs><clipPath id="clip" clipPathUnits="objectBoundingBox"><rect x="0" y="0" width="256" height="256"/></clipPath></defs><rect x="0" y="0" width="256" height="256" fill="rgb(255, 255, 255)"/><path d="M48,149L105,184L107,97Z" fill="rgb(42, 42, 42)" fill-opacity="0.64"/><path d="M188,112L104,189L120,79Z" fill="rgb(81, 81, 81)" fill-opacity="0.77"/><path d="M58,149L110,154L71,174Z" fill="rgb(0, 0, 0)" fill-opacity="0.54"/><path d="M144,105L150,127L121,135Z" fill="rgb(255, 255, 255)" fill-opacity="0.56"/><path d="M95,91L87,157L46,113Z" fill="rgb(249, 249, 249)" fill-opacity="0.86"/><path d="M92,147L91,85L133,112Z" fill="rgb(0, 0, 0)" fill-opacity="0.49"/><path d="M224,166L223,151L173,164Z" fill="rgb(1, 1, 1)" fill-opacity="0.57"/><path d="M61,168L111,224L149,166Z" fill="rgb(252, 252, 252)" fill-opacity="0.96"/><path d="M151,87L150,146L171,118Z" fill="rgb(0, 0, 0)" fill-opacity="0.66"/><path d="M175,139L160,88L268,178Z" fill="rgb(252, 252, 252)" fill-opacity="0.95"/><path d="M136,100L160,124L126,121Z" fill="rgb(255, 255, 255)" fill-opacity="0.70"/><path d="M99,74L153,70L109,108Z" fill="rgb(255, 255, 255)" fill-opacity="0.75"/><path d="M117,98L147,89L169,112Z" fill="rgb(0, 0, 0)" fill-opacity="0.83"/><path d="M133,168L141,144L141,167Z" fill="rgb(0, 0, 0)" fill-opacity="0.40"/><path d="M169,116L164,139L240,67Z" fill="rgb(253, 253, 253)" fill-opacity="1.00"/><path d="M115,167L105,151L95,168Z" fill="rgb(249, 249, 249)" fill-opacity="0.86"/><path d="M129,162L111,165L122,91Z" fill="rgb(0, 0, 0)" fill-opacity="0.60"/><path d="M148,146L170,120L128,137Z" fill="rgb(0, 0, 0)" fill-opacity="0.62"/><path d="M123,174L152,144L128,148Z" fill="rgb(255, 255, 255)" fill-opacity="0.59"/><path d="M218,153L124,153L156,170Z" fill="rgb(14, 14, 14)" fill-opacity="0.21"/><path d="M106,104L90,111L101,77Z" fill="rgb(0, 0, 0)" fill-opacity="0.53"/><path d="M142,101L128,91L110,121Z" fill="rgb(0, 0, 0)" fill-opacity="0.65"/><path d="M127,111L129,150L147,104Z" fill="rgb(255, 255, 255)" fill-opacity="0.65"/><path d="M105,163L90,146L106,105Z" fill="rgb(0, 0, 0)" fill-opacity="0.56"/><path d="M58,150L61,134L94,169Z" fill="rgb(0, 0, 0)" fill-opacity="0.65"/><path d="M129,115L136,148L125,175Z" fill="rgb(252, 252, 252)" fill-opacity="0.70"/><path d="M59,165L39,171L23,151Z" fill="rgb(122, 122, 122)" fill-opacity="0.57"/><path d="M91,90L132,90L91,5Z" fill="rgb(254, 254, 254)" fill-opacity="0.92"/><path d="M76,205L108,147L117,176Z" fill="rgb(253, 253, 253)" fill-opacity="0.89"/><path d="M166,40L153,95L143,73Z" fill="rgb(251, 251, 251)" fill-opacity="0.74"/><path d="M105,141L73,160L92,169Z" fill="rgb(0, 0, 0)" fill-opacity="0.55"/><path d="M127,135L111,158L114,103Z" fill="rgb(0, 0, 0)" fill-opacity="0.71"/><path d="M106,93L92,92L92,166Z" fill="rgb(0, 0, 0)" fill-opacity="0.75"/><path d="M92,130L80,97L89,157Z" fill="rgb(255, 255, 255)" fill-opacity="0.64"/><path d="M161,140L146,131L167,104Z" fill="rgb(0, 0, 0)" fill-opacity="0.56"/><path d="M112,123L116,171L129,163Z" fill="rgb(0, 0, 0)" fill-opacity="0.51"/><path d="M59,133L57,154L16,159Z" fill="rgb(252, 252, 252)" fill-opacity="1.00"/><path d="M98,163L101,140L70,166Z" fill="rgb(0, 0, 0)" fill-opacity="0.69"/><path d="M91,151L78,153L70,146Z" fill="rgb(253, 253, 253)" fill-opacity="0.60"/><path d="M144,146L141,189L157,140Z" fill="rgb(255, 255, 255)" fill-opacity="0.54"/><path d="M109,140L104,108L120,68Z" fill="rgb(252, 252, 252)" fill-opacity="0.69"/><path d="M64,92L74,150L93,144Z" fill="rgb(255, 255, 255)" fill-opacity="0.62"/><path d="M203,159L225,158L219,170Z" fill="rgb(0, 0, 0)" fill-opacity="0.47"/><path d="M127,171L83,172L97,162Z" fill="rgb(243, 243, 243)" fill-opacity="0.72"/><path d="M28,183L36,161L60,175Z" fill="rgb(253, 253, 253)" fill-opacity="0.62"/><path d="M74,140L69,167L62,137Z" fill="rgb(0, 0, 0)" fill-opacity="0.42"/><path d="M101,81L29,84L82,108Z" fill="rgb(250, 250, 250)" fill-opacity="0.84"/><path d="M141,105L155,112L142,134Z" fill="rgb(255, 255, 255)" fill-opacity="0.50"/><path d="M137,166L143,143L135,154Z" fill="rgb(41, 41, 41)" fill-opacity="0.55"/><path d="M128,131L148,129L131,107Z" fill="rgb(255, 255, 255)" fill-opacity="0.61"/><path d="M128,137L168,119L138,144Z" fill="rgb(0, 0, 0)" fill-opacity="0.47"/><path d="M126,139L133,153L133,132Z" fill="rgb(255, 255, 255)" fill-opacity="0.54"/><path d="M203,166L189,158L226,159Z" fill="rgb(0, 0, 0)" fill-opacity="0.73"/><path d="M44,158L27,168L34,157Z" fill="rgb(67, 67, 67)" fill-opacity="0.45"/><path d="M78,169L70,136L63,159Z" fill="rgb(0, 0, 0)" fill-opacity="0.52"/><path d="M117,101L141,89L114,137Z" fill="rgb(0, 0, 0)" fill-opacity="0.64"/><path d="M147,84L111,100L83,68Z" fill="rgb(250, 250, 250)" fill-opacity="0.78"/><path d="M140,154L167,149L217,179Z" fill="rgb(227, 227, 227)" fill-opacity="0.81"/><path d="M41,130L92,106L88,143Z" fill="rgb(255, 255, 255)" fill-opacity="0.72"/><path d="M154,143L134,144L169,124Z" fill="rgb(0, 0, 0)" fill-opacity="0.59"/><path d="M199,168L178,162L202,165Z" fill="rgb(130, 130, 130)" fill-opacity="0.50"/><path d="M66,171L61,166L21,159Z" fill="rgb(89, 89, 89)" fill-opacity="0.40"/><path d="M124,91L106,67L106,118Z" fill="rgb(254, 254, 254)" fill-opacity="0.72"/><path d="M61,138L62,159L70,137Z" fill="rgb(0, 0, 0)" fill-opacity="0.52"/><path d="M105,118L112,171L112,147Z" fill="rgb(255, 255, 255)" fill-opacity="0.72"/><path d="M198,162L197,162L207,177Z" fill="rgb(238, 238, 238)" fill-opacity="0.57"/><path d="M126,159L136,197L128,108Z" fill="rgb(254, 254, 254)" fill-opacity="0.53"/><path d="M127,134L113,107L126,92Z" fill="rgb(0, 0, 0)" fill-opacity="0.46"/><path d="M69,163L85,179L43,171Z" fill="rgb(248, 248, 248)" fill-opacity="0.78"/><path d="M185,134L190,156L180,210Z" fill="rgb(254, 254, 254)" fill-opacity="0.68"/><path d="M184,153L183,172L175,166Z" fill="rgb(186, 186, 186)" fill-opacity="0.43"/><path d="M142,167L128,149L141,161Z" fill="rgb(36, 36, 36)" fill-opacity="0.53"/><path d="M91,148L91,113L75,152Z" fill="rgb(255, 255, 255)" fill-opacity="0.72"/><path d="M169,108L153,91L126,92Z" fill="rgb(0, 0, 0)" fill-opacity="0.52"/><path d="M107,111L104,87L99,153Z" fill="rgb(9, 9, 9)" fill-opacity="0.64"/><path d="M119,168L110,162L128,163Z" fill="rgb(0, 0, 0)" fill-opacity="0.48"/><path d="M106,122L113,105L108,167Z" fill="rgb(251, 251, 251)" fill-opacity="0.91"/><path d="M132,155L143,154L136,161Z" fill="rgb(9, 9, 9)" fill-opacity="0.57"/><path d="M119,98L110,117L148,98Z" fill="rgb(5, 5, 5)" fill-opacity="0.47"/><path d="M204,183L216,161L221,164Z" fill="rgb(230, 230, 230)" fill-opacity="0.50"/><path d="M190,154L204,161L188,165Z" fill="rgb(26, 26, 26)" fill-opacity="0.54"/><path d="M137,145L157,140L132,140Z" fill="rgb(0, 0, 0)" fill-opacity="0.55"/><path d="M226,169L225,159L221,172Z" fill="rgb(174, 174, 174)" fill-opacity="0.45"/><path d="M43,166L60,154L47,119Z" fill="rgb(253, 253, 253)" fill-opacity="0.91"/><path d="M42,163L39,165L40,154Z" fill="rgb(0, 0, 0)" fill-opacity="0.51"/><path d="M170,165L177,169L165,127Z" fill="rgb(255, 255, 255)" fill-opacity="0.47"/><path d="M151,166L159,145L172,170Z" fill="rgb(110, 110, 110)" fill-opacity="0.28"/><path d="M163,120L160,97L131,93Z" fill="rgb(0, 0, 0)" fill-opacity="0.49"/><path d="M154,116L147,132L145,103Z" fill="rgb(255, 255, 255)" fill-opacity="0.58"/><path d="M150,130L133,133L137,142Z" fill="rgb(0, 0, 0)" fill-opacity="0.49"/><path d="M30,170L60,154L60,160Z" fill="rgb(250, 250, 250)" fill-opacity="0.71"/><path d="M76,151L76,164L66,164Z" fill="rgb(1, 1, 1)" fill-opacity="0.58"/><path d="M130,167L182,167L155,166Z" fill="rgb(89, 89, 89)" fill-opacity="0.48"/><path d="M128,157L139,150L130,140Z" fill="rgb(255, 255, 255)" fill-opacity="0.48"/><path d="M152,125L151,116L138,132Z" fill="rgb(255, 255, 255)" fill-opacity="0.50"/><path d="M33,174L38,153L38,188Z" fill="rgb(255, 255, 255)" fill-opacity="0.63"/><path d="M136,145L161,147L151,162Z" fill="rgb(255, 255, 255)" fill-opacity="0.53"/><path d="M112,112L112,145L124,146Z" fill="rgb(2, 2, 2)" fill-opacity="0.74"/><path d="M170,113L231,141L159,94Z" fill="rgb(253, 253, 253)" fill-opacity="0.95"/><path d="M101,89L93,92L107,98Z" fill="rgb(0, 0, 0)" fill-opacity="0.46"/><path d="M56,183L43,162L21,185Z" fill="rgb(254, 254, 254)" fill-opacity="0.51"/><path d="M127,98L164,102L168,114Z" fill="rgb(7, 7, 7)" fill-opacity="0.66"/><path d="M106,100L106,153L92,98Z" fill="rgb(1, 1, 1)" fill-opacity="0.73"/><path d="M143,154L126,144L150,160Z" fill="rgb(245, 245, 245)" fill-opacity="0.61"/><path d="M125,106L127,162L112,163Z" fill="rgb(0, 0, 0)" fill-opacity="0.58"/><path d="M168,123L154,142L153,105Z" fill="rgb(0, 0, 0)" fill-opacity="0.64"/><path d="M51,167L46,166L38,156Z" fill="rgb(27, 27, 27)" fill-opacity="0.51"/><path d="M224,161L198,165L221,157Z" fill="rgb(0, 0, 0)" fill-opacity="0.50"/><path d="M215,154L227,158L192,156Z" fill="rgb(223, 223, 223)" fill-opacity="0.76"/><path d="M190,153L210,152L217,154Z" fill="rgb(55, 55, 55)" fill-opacity="0.52"/><path d="M144,179L127,154L126,167Z" fill="rgb(248, 248, 248)" fill-opacity="0.61"/><path d="M134,83L156,95L165,85Z" fill="rgb(238, 238, 238)" fill-opacity="0.57"/><path d="M104,155L103,95L93,166Z" fill="rgb(5, 5, 5)" fill-opacity="0.82"/><path d="M28,206L47,192L45,157Z" fill="rgb(253, 253, 253)" fill-opacity="0.70"/><path d="M157,94L168,117L152,132Z" fill="rgb(1, 1, 1)" fill-opacity="0.51"/><path d="M177,171L212,206L217,170Z" fill="rgb(255, 255, 255)" fill-opacity="0.97"/><path d="M197,157L199,163L207,159Z" fill="rgb(0, 0, 0)" fill-opacity="0.54"/><path d="M33,187L29,132L19,139Z" fill="rgb(246, 246, 246)" fill-opacity="0.53"/><path d="M164,154L182,180L162,135Z" fill="rgb(255, 255, 255)" fill-opacity="0.64"/><path d="M182,167L196,202L187,153Z" fill="rgb(255, 255, 255)" fill-opacity="0.42"/><path d="M156,148L171,166L166,162Z" fill="rgb(3, 3, 3)" fill-opacity="0.39"/><path d="M133,141L135,132L167,128Z" fill="rgb(4, 4, 4)" fill-opacity="0.57"/><path d="M65,135L68,87L25,161Z" fill="rgb(254, 254, 254)" fill-opacity="0.88"/><path d="M163,167L149,167L163,166Z" fill="rgb(0, 0, 0)" fill-opacity="0.52"/><path d="M195,171L190,157L198,169Z" fill="rgb(69, 69, 69)" fill-opacity="0.41"/><path d="M35,159L38,158L38,147Z" fill="rgb(255, 255, 255)" fill-opacity="0.49"/><path d="M113,110L139,104L135,89Z" fill="rgb(8, 8, 8)" fill-opacity="0.78"/><path d="M209,152L210,158L218,162Z" fill="rgb(61, 61, 61)" fill-opacity="0.63"/><path d="M158,139L176,121L165,158Z" fill="rgb(255, 255, 255)" fill-opacity="0.60"/><path d="M70,166L57,140L80,154Z" fill="rgb(8, 8, 8)" fill-opacity="0.78"/><path d="M141,87L231,87L202,84Z" fill="rgb(225, 225, 225)" fill-opacity="0.73"/><path d="M144,154L141,156L144,159Z" fill="rgb(13, 13, 13)" fill-opacity="0.47"/><path d="M190,169L220,169L216,170Z" fill="rgb(163, 163, 163)" fill-opacity="0.48"/><path d="M225,160L213,158L224,165Z" fill="rgb(0, 0, 0)" fill-opacity="0.48"/><path d="M126,97L126,162L114,167Z" fill="rgb(3, 3, 3)" fill-opacity="0.63"/><path d="M202,153L189,154L224,154Z" fill="rgb(0, 0, 0)" fill-opacity="0.45"/><path d="M141,102L150,113L138,131Z" fill="rgb(255, 255, 255)" fill-opacity="0.44"/><path d="M109,118L113,116L105,109Z" fill="rgb(253, 253, 253)" fill-opacity="0.55"/><path d="M200,158L205,165L200,153Z" fill="rgb(0, 0, 0)" fill-opacity="0.54"/><path d="M154,308L105,159L80,173Z" fill="rgb(254, 254, 254)" fill-opacity="0.97"/><path d="M160,184L165,161L163,158Z" fill="rgb(255, 255, 255)" fill-opacity="0.60"/><path d="M140,122L127,117L127,148Z" fill="rgb(255, 255, 255)" fill-opacity="0.76"/><path d="M133,135L134,140L152,128Z" fill="rgb(0, 0, 0)" fill-opacity="0.47"/><path d="M92,154L92,98L105,149Z" fill="rgb(3, 3, 3)" fill-opacity="0.67"/><path d="M160,96L152,111L163,129Z" fill="rgb(9, 9, 9)" fill-opacity="0.64"/><path d="M171,166L166,172L138,170Z" fill="rgb(227, 227, 227)" fill-opacity="0.55"/><path d="M187,213L138,165L105,207Z" fill="rgb(254, 254, 254)" fill-opacity="0.99"/><path d="M150,89L174,108L179,87Z" fill="rgb(255, 255, 255)" fill-opacity="0.69"/><path d="M101,161L112,133L112,162Z" fill="rgb(255, 255, 255)" fill-opacity="0.47"/><path d="M57,163L43,165L57,167Z" fill="rgb(0, 0, 0)" fill-opacity="0.47"/><path d="M-28,204L224,213L105,162Z" fill="rgb(254, 254, 254)" fill-opacity="0.70"/><path d="M75,167L62,158L57,141Z" fill="rgb(2, 2, 2)" fill-opacity="0.52"/><path d="M156,126L130,140L169,115Z" fill="rgb(15, 15, 15)" fill-opacity="0.51"/><path d="M164,153L275,33L221,153Z" fill="rgb(254, 254, 254)" fill-opacity="0.82"/><path d="M225,162L215,148L224,165Z" fill="rgb(57, 57, 57)" fill-opacity="0.41"/><path d="M134,160L133,158L134,156Z" fill="rgb(0, 0, 0)" fill-opacity="0.49"/><path d="M91,130L74,150L71,137Z" fill="rgb(251, 251, 251)" fill-opacity="0.72"/><path d="M228,99L236,119L229,137Z" fill="rgb(236, 236, 236)" fill-opacity="0.47"/><path d="M154,115L143,104L131,107Z" fill="rgb(255, 255, 255)" fill-opacity="0.56"/><path d="M112,149L112,138L87,188Z" fill="rgb(253, 253, 253)" fill-opacity="0.62"/><path d="M133,135L127,148L133,156Z" fill="rgb(255, 255, 255)" fill-opacity="0.59"/><path d="M71,167L32,201L63,159Z" fill="rgb(252, 252, 252)" fill-opacity="0.69"/><path d="M206,164L221,161L186,159Z" fill="rgb(5, 5, 5)" fill-opacity="0.57"/><path d="M231,123L231,170L227,161Z" fill="rgb(219, 219, 219)" fill-opacity="0.43"/><path d="M212,157L211,152L207,169Z" fill="rgb(33, 33, 33)" fill-opacity="0.50"/><path d="M75,150L57,142L65,137Z" fill="rgb(5, 5, 5)" fill-opacity="0.49"/><path d="M150,165L153,153L153,168Z" fill="rgb(125, 125, 125)" fill-opacity="0.47"/><path d="M105,165L112,93L112,132Z" fill="rgb(255, 255, 255)" fill-opacity="0.72"/><path d="M101,160L89,150L85,167Z" fill="rgb(6, 6, 6)" fill-opacity="0.63"/><path d="M80,168L58,152L90,168Z" fill="rgb(0, 0, 0)" fill-opacity="0.49"/><path d="M110,92L148,89L63,79Z" fill="rgb(247, 247, 247)" fill-opacity="0.66"/><path d="M74,126L36,160L15,120Z" fill="rgb(253, 253, 253)" fill-opacity="0.57"/><path d="M172,114L167,123L167,155Z" fill="rgb(255, 255, 255)" fill-opacity="0.52"/><path d="M25,93L22,106L41,73Z" fill="rgb(233, 233, 233)" fill-opacity="0.44"/><path d="M154,118L135,133L149,106Z" fill="rgb(255, 255, 255)" fill-opacity="0.54"/><path d="M43,158L37,157L42,162Z" fill="rgb(0, 0, 0)" fill-opacity="0.50"/><path d="M158,121L165,131L163,133Z" fill="rgb(0, 0, 0)" fill-opacity="0.51"/><path d="M143,189L126,160L133,164Z" fill="rgb(251, 251, 251)" fill-opacity="0.60"/><path d="M59,153L59,139L80,155Z" fill="rgb(3, 3, 3)" fill-opacity="0.61"/><path d="M137,104L127,169L128,110Z" fill="rgb(255, 255, 255)" fill-opacity="0.54"/><path d="M197,117L226,163L229,99Z" fill="rgb(254, 254, 254)" fill-opacity="1.00"/><path d="M114,106L106,138L106,97Z" fill="rgb(251, 251, 251)" fill-opacity="0.75"/><path d="M226,85L225,88L233,97Z" fill="rgb(211, 211, 211)" fill-opacity="0.49"/><path d="M130,142L139,146L136,152Z" fill="rgb(255, 255, 255)" fill-opacity="0.63"/><path d="M93,98L103,90L106,110Z" fill="rgb(2, 2, 2)" fill-opacity="0.51"/><path d="M161,148L152,161L161,152Z" fill="rgb(3, 3, 3)" fill-opacity="0.30"/><path d="M34,148L58,163L46,164Z" fill="rgb(249, 249, 249)" fill-opacity="0.49"/><path d="M192,143L182,145L188,168Z" fill="rgb(253, 253, 253)" fill-opacity="0.58"/><path d="M170,149L155,141L141,152Z" fill="rgb(255, 255, 255)" fill-opacity="0.55"/><path d="M71,138L87,113L76,151Z" fill="rgb(255, 255, 255)" fill-opacity="0.65"/><path d="M173,137L167,111L172,93Z" fill="rgb(253, 253, 253)" fill-opacity="0.65"/><path d="M37,163L31,155L33,163Z" fill="rgb(0, 0, 0)" fill-opacity="0.46"/><path d="M138,146L157,167L155,145Z" fill="rgb(255, 255, 255)" fill-opacity="0.43"/><path d="M58,169L23,169L46,171Z" fill="rgb(187, 187, 187)" fill-opacity="0.35"/><path d="M76,170L115,168L114,170Z" fill="rgb(200, 200, 200)" fill-opacity="0.61"/><path d="M165,131L168,113L146,130Z" fill="rgb(7, 7, 7)" fill-opacity="0.56"/><path d="M75,150L82,154L91,146Z" fill="rgb(255, 255, 255)" fill-opacity="0.59"/><path d="M115,104L156,104L136,89Z" fill="rgb(6, 6, 6)" fill-opacity="0.60"/><path d="M173,8L134,90L155,90Z" fill="rgb(254, 254, 254)" fill-opacity="0.63"/><path d="M123,117L112,110L139,99Z" fill="rgb(12, 12, 12)" fill-opacity="0.47"/></svg>