<svg xmlns="http://www.w3.org/2000/svg" viewBox="0 0 252.7418181818182 256" clip-path="url(#clip)" width="505.4836363636364" height="512"><defs><clipPath id="clip" clipPathUnits="objectBoundingBox"><rect x="0" y="0" width="252.7418181818182" height="256"/></clipPath></defs><rect x="0" y="0" width="252.7418181818182" height="256" fill="rgb(254, 254, 254)"/><path d="M-109,137L206,-96L234,211Z" fill="rgb(127, 95, 74)" fill-opacity="1.00"/><path d="M29,33L19,179L-98,126Z" fill="rgb(244, 244, 244)" fill-opacity="1.00"/><path d="M26,216L8,182L59,234Z" fill="rgb(0, 0, 0)" fill-opacity="0.54"/><path d="M96,203L83,224L54,213Z" fill="rgb(0, 0, 0)" fill-opacity="0.60"/><path d="M172,38L162,64L126,81Z" fill="rgb(255, 255, 255)" fill-opacity="0.76"/><path d="M102,102L222,194L229,81Z" fill="rgb(0, 0, 0)" fill-opacity="0.83"/><path d="M130,-36L199,97L343,-25Z" fill="rgb(211, 198, 189)" fill-opacity="0.89"/><path d="M105,210L213,199L109,117Z" fill="rgb(242, 99, 3)" fill-opacity="0.90"/><path d="M109,19L29,18L29,178Z" fill="rgb(4, 4, 4)" fill-opacity="0.95"/><path d="M41,157L13,167L5,192Z" fill="rgb(60, 61, 62)" fill-opacity="0.79"/><path d="M30,186L72,126L114,180Z" fill="rgb(213, 215, 216)" fill-opacity="0.91"/><path d="M198,14L84,-5L110,89Z" fill="rgb(253, 118, 28)" fill-opacity="0.84"/><path d="M59,236L57,228L88,239Z" fill="rgb(0, 0, 0)" fill-opacity="0.54"/><path d="M66,172L89,164L78,153Z" fill="rgb(12, 12, 13)" fill-opacity="0.61"/><path d="M269,166L214,260L232,134Z" fill="rgb(253, 253, 253)" fill-opacity="0.93"/><path d="M95,-5L98,164L107,91Z" fill="rgb(227, 227, 227)" fill-opacity="1.00"/><path d="M106,237L85,240L117,211Z" fill="rgb(23, 23, 23)" fill-opacity="0.54"/><path d="M79,206L100,203L54,171Z" fill="rgb(41, 40, 40)" fill-opacity="0.44"/><path d="M100,144L94,71L24,72Z" fill="rgb(0, 0, 0)" fill-opacity="0.71"/><path d="M65,197L33,200L44,187Z" fill="rgb(47, 47, 47)" fill-opacity="0.61"/><path d="M134,84L128,76L110,93Z" fill="rgb(255, 255, 255)" fill-opacity="0.49"/><path d="M158,8L38,4L233,-16Z" fill="rgb(243, 243, 243)" fill-opacity="1.00"/><path d="M33,181L29,193L48,176Z" fill="rgb(0, 0, 0)" fill-opacity="0.51"/><path d="M182,30L193,38L200,29Z" fill="rgb(0, 0, 0)" fill-opacity="0.52"/><path d="M67,17L-58,-69L100,11Z" fill="rgb(248, 249, 249)" fill-opacity="0.99"/><path d="M211,97L162,61L106,102Z" fill="rgb(0, 0, 0)" fill-opacity="0.79"/><path d="M10,174L13,196L29,212Z" fill="rgb(0, 0, 0)" fill-opacity="0.61"/><path d="M45,228L73,238L30,211Z" fill="rgb(0, 0, 0)" fill-opacity="0.63"/><path d="M223,86L221,75L241,57Z" fill="rgb(0, 0, 0)" fill-opacity="0.42"/><path d="M246,47L233,73L245,18Z" fill="rgb(0, 0, 4)" fill-opacity="0.49"/><path d="M12,168L6,182L32,168Z" fill="rgb(0, 0, 0)" fill-opacity="0.56"/><path d="M209,30L109,98L157,50Z" fill="rgb(244, 251, 255)" fill-opacity="0.72"/><path d="M116,205L109,227L102,147Z" fill="rgb(76, 91, 101)" fill-opacity="0.78"/><path d="M193,202L323,270L221,200Z" fill="rgb(252, 252, 252)" fill-opacity="1.00"/><path d="M67,190L60,162L54,167Z" fill="rgb(0, 0, 0)" fill-opacity="0.57"/><path d="M90,186L87,225L94,195Z" fill="rgb(0, 0, 0)" fill-opacity="0.62"/><path d="M77,216L105,168L72,169Z" fill="rgb(255, 255, 255)" fill-opacity="0.67"/><path d="M20,135L45,164L102,85Z" fill="rgb(0, 0, 2)" fill-opacity="0.61"/><path d="M217,69L197,63L200,74Z" fill="rgb(0, 0, 0)" fill-opacity="0.75"/><path d="M45,201L50,186L35,198Z" fill="rgb(0, 0, 0)" fill-opacity="0.58"/><path d="M179,47L146,81L176,154Z" fill="rgb(0, 0, 0)" fill-opacity="0.67"/><path d="M58,177L21,181L45,161Z" fill="rgb(255, 255, 255)" fill-opacity="0.65"/><path d="M219,38L222,46L237,43Z" fill="rgb(0, 4, 8)" fill-opacity="0.68"/><path d="M80,211L55,175L45,213Z" fill="rgb(253, 253, 253)" fill-opacity="0.86"/><path d="M27,38L95,48L98,148Z" fill="rgb(0, 1, 1)" fill-opacity="0.94"/><path d="M183,66L239,56L177,31Z" fill="rgb(250, 255, 255)" fill-opacity="0.66"/><path d="M179,55L214,83L192,92Z" fill="rgb(255, 255, 255)" fill-opacity="0.51"/><path d="M121,116L85,104L165,156Z" fill="rgb(244, 255, 255)" fill-opacity="0.62"/><path d="M239,14L196,19L249,23Z" fill="rgb(0, 0, 0)" fill-opacity="0.45"/><path d="M92,204L92,215L60,219Z" fill="rgb(0, 0, 0)" fill-opacity="0.62"/><path d="M206,56L202,49L213,16Z" fill="rgb(18, 25, 31)" fill-opacity="0.56"/><path d="M187,172L173,157L210,182Z" fill="rgb(253, 255, 255)" fill-opacity="0.55"/><path d="M154,151L219,195L110,206Z" fill="rgb(255, 100, 0)" fill-opacity="0.60"/><path d="M74,149L60,164L56,162Z" fill="rgb(0, 0, 0)" fill-opacity="0.48"/><path d="M23,134L50,149L20,167Z" fill="rgb(0, 0, 0)" fill-opacity="0.75"/><path d="M68,218L96,238L109,222Z" fill="rgb(255, 255, 255)" fill-opacity="0.50"/><path d="M207,16L223,43L196,15Z" fill="rgb(253, 255, 255)" fill-opacity="0.59"/><path d="M63,176L76,190L73,203Z" fill="rgb(12, 13, 13)" fill-opacity="0.51"/><path d="M146,57L157,49L156,54Z" fill="rgb(26, 9, 0)" fill-opacity="0.56"/><path d="M36,168L53,167L89,125Z" fill="rgb(255, 255, 255)" fill-opacity="0.54"/><path d="M109,100L94,87L115,93Z" fill="rgb(252, 255, 255)" fill-opacity="0.57"/><path d="M113,114L101,101L98,123Z" fill="rgb(255, 255, 255)" fill-opacity="0.55"/><path d="M104,142L103,166L96,121Z" fill="rgb(254, 255, 255)" fill-opacity="0.59"/><path d="M72,240L100,238L54,229Z" fill="rgb(0, 0, 0)" fill-opacity="0.58"/><path d="M248,-6L233,20L179,-2Z" fill="rgb(255, 255, 255)" fill-opacity="0.81"/><path d="M103,-13L83,-14L95,20Z" fill="rgb(251, 255, 255)" fill-opacity="0.69"/><path d="M243,28L173,31L194,15Z" fill="rgb(235, 241, 244)" fill-opacity="0.70"/><path d="M90,13L36,21L96,22Z" fill="rgb(0, 0, 7)" fill-opacity="0.64"/><path d="M103,64L108,82L104,43Z" fill="rgb(0, 0, 0)" fill-opacity="0.58"/><path d="M15,29L66,2L84,-58Z" fill="rgb(253, 253, 253)" fill-opacity="0.91"/><path d="M111,210L93,206L104,171Z" fill="rgb(249, 255, 255)" fill-opacity="0.66"/><path d="M83,137L63,164L95,152Z" fill="rgb(255, 255, 255)" fill-opacity="0.77"/><path d="M142,140L183,168L167,151Z" fill="rgb(255, 255, 255)" fill-opacity="0.46"/><path d="M84,139L103,161L70,109Z" fill="rgb(0, 0, 10)" fill-opacity="0.55"/><path d="M234,64L217,83L207,144Z" fill="rgb(0, 1, 3)" fill-opacity="0.59"/><path d="M226,58L202,70L216,69Z" fill="rgb(0, 2, 5)" fill-opacity="0.67"/><path d="M97,209L151,204L228,205Z" fill="rgb(236, 245, 252)" fill-opacity="0.76"/><path d="M29,169L30,19L24,112Z" fill="rgb(6, 7, 7)" fill-opacity="0.97"/><path d="M113,222L112,184L100,156Z" fill="rgb(1, 10, 17)" fill-opacity="0.58"/><path d="M294,-27L237,77L244,45Z" fill="rgb(252, 254, 255)" fill-opacity="0.77"/><path d="M25,207L33,221L-5,225Z" fill="rgb(255, 255, 255)" fill-opacity="0.58"/><path d="M205,14L246,21L217,22Z" fill="rgb(3, 8, 11)" fill-opacity="0.62"/><path d="M228,118L228,97L121,121Z" fill="rgb(0, 0, 0)" fill-opacity="0.88"/><path d="M185,85L195,93L218,90Z" fill="rgb(80, 80, 81)" fill-opacity="0.85"/><path d="M102,42L93,19L100,124Z" fill="rgb(248, 254, 255)" fill-opacity="0.65"/><path d="M198,30L189,37L187,28Z" fill="rgb(0, 0, 0)" fill-opacity="0.51"/><path d="M230,35L210,48L210,33Z" fill="rgb(255, 255, 255)" fill-opacity="0.58"/><path d="M18,205L37,219L23,199Z" fill="rgb(0, 0, 0)" fill-opacity="0.50"/><path d="M134,128L183,164L125,129Z" fill="rgb(255, 255, 255)" fill-opacity="0.62"/><path d="M196,57L189,58L204,76Z" fill="rgb(0, 0, 0)" fill-opacity="0.48"/><path d="M206,17L199,16L203,12Z" fill="rgb(0, 1, 9)" fill-opacity="0.48"/><path d="M221,197L219,149L228,204Z" fill="rgb(16, 13, 11)" fill-opacity="0.55"/><path d="M199,199L125,205L163,204Z" fill="rgb(0, 6, 38)" fill-opacity="0.62"/><path d="M202,13L225,18L180,-67Z" fill="rgb(253, 254, 255)" fill-opacity="0.86"/><path d="M256,37L234,4L247,-58Z" fill="rgb(252, 252, 252)" fill-opacity="1.00"/><path d="M83,220L86,197L95,202Z" fill="rgb(0, 0, 0)" fill-opacity="0.49"/><path d="M56,206L91,191L83,208Z" fill="rgb(255, 255, 255)" fill-opacity="0.51"/><path d="M122,206L116,203L162,203Z" fill="rgb(0, 0, 0)" fill-opacity="0.55"/><path d="M219,34L235,35L226,29Z" fill="rgb(8, 20, 28)" fill-opacity="0.49"/><path d="M128,11L137,8L110,6Z" fill="rgb(0, 0, 5)" fill-opacity="0.46"/><path d="M179,60L171,61L176,34Z" fill="rgb(27, 32, 35)" fill-opacity="0.60"/></svg>