<svg xmlns="http://www.w3.org/2000/svg" clip-path="url(#a)" width="250" height="82"><defs><clipPath id="a" clipPathUnits="objectBoundingBox"><path d="M0 0h250v82H0z"/></clipPath></defs><path fill="#AA525E" d="M0 0h250v82H0z"/><path d="M266 81L155-276-20 74z" fill="#B3DAF0" fill-opacity=".7"/><path d="M191-8l-19 23 2 58z" fill="#6F000C" fill-opacity=".6"/><path d="M5 80V10l-140-99z" fill="#900012"/><path d="M264 16l-56 1-2 12z" fill="#360005" fill-opacity=".5"/><path d="M176 1L54-2l77 9z" fill="#3B0010" fill-opacity=".8"/><path d="M137 86V6l15 32z" fill="#8F000A" fill-opacity=".7"/><path d="M72 6l9-31-8 105z" fill="#7E0C20" fill-opacity=".9"/><path d="M77 73V61l-55-2z" fill="#D50009" fill-opacity=".6"/><path d="M5 77l31-1L5-12z" fill="#B4FFFF" fill-opacity=".6"/><path d="M101 104l14-83-14-7z" fill="#910412" fill-opacity=".7"/><path d="M253 6l-77-3 60-12z" fill="#460115" fill-opacity=".9"/><path d="M149 79l-16 1 16-29z" fill="#CA0008" fill-opacity=".6"/><path d="M214 58l-2 46-5-73z" fill="#970000" fill-opacity=".6"/><path d="M308 7L176 192l55-167z" fill="#F6F3F4"/><path d="M190 15L154-7l-19 5z" fill="#3B0011" fill-opacity=".5"/><path d="M210 54l19-4-4-17z" fill="#88000B" fill-opacity=".5"/><path d="M102 40h12l-3 49z" fill="#C9101E" fill-opacity=".6"/><path d="M34 2l-1 83-6-86z" fill="#680005" fill-opacity=".7"/><path d="M2 5l7-58L32 4z" fill="#46000F" fill-opacity=".9"/><path d="M34 59h39L40-186z" fill="#FEFEFC" fill-opacity=".9"/><path d="M74 6l61-3-19-109z" fill="#48061B" fill-opacity=".9"/><path d="M146 41l5-19-9-7z" fill="#5E051A" fill-opacity=".6"/><path d="M169 94l16-17V13z" fill="#BA0000" fill-opacity=".6"/><path d="M74 23l7-19 87 3z" fill="#3FFFFF" fill-opacity=".5"/><path d="M29 32l9 34-9-3z" fill="#A0000D" fill-opacity=".8"/><path d="M175-10l9 29-13-17z" fill="#F9EAE3" fill-opacity=".5"/><path d="M249 5l-64 22V5z" fill="#5DF3FF" fill-opacity=".7"/><path d="M211 27l21 8h-26z" fill="#88000E" fill-opacity=".7"/><path d="M185 79V5l31 37z" fill="#AEE3FF" fill-opacity=".9"/><path d="M59 78L6 75l17-16z" fill="#D3EEFF" fill-opacity=".6"/><path d="M173 11l-1 70-25-41z" fill="#AEFDFF" fill-opacity=".6"/><path d="M80 90l-8-13V28z" fill="#B40000" fill-opacity=".6"/><path d="M201 77l38 15-73-14z" fill="#B90000" fill-opacity=".4"/><path d="M29 11L11 2l17 79z" fill="#88F4FF" fill-opacity=".6"/><path d="M76 42l23 35 2-69z" fill="#AFE4FF"/><path d="M137 69l-26-15 24-58z" fill="#A8FBFF" fill-opacity=".6"/><path d="M189 75l13-40 8 41z" fill="#E1FDFF" fill-opacity=".5"/><path d="M148 2l24 10-23 27z" fill="#6DE7FF" fill-opacity=".6"/><path d="M62 78l3-14-38 3z" fill="#E7FFFF" fill-opacity=".6"/><path d="M144 2l-28 77-4-64z" fill="#98E3FF" fill-opacity=".7"/><path d="M105 46l3-6v35z" fill="#FFF" fill-opacity=".6"/><path d="M212 22l19 16 34-16z" fill="#FFF" fill-opacity=".5"/><path d="M116 6l51-1-25 13z" fill="#63E9FF" fill-opacity=".6"/><path d="M209 12v18l-24 2z" fill="#86EDFF" fill-opacity=".6"/><path d="M251 5h-65l-46-91z" fill="#490012" fill-opacity=".9"/><path d="M71 74l-6-20-1 36z" fill="#B40A1A" fill-opacity=".6"/><path d="M177 40l3-15v59z" fill="#FFF" fill-opacity=".7"/><path d="M175 5l3 18-13-21z" fill="#3C0000" fill-opacity=".6"/><path d="M176 77h-32l24 30z" fill="#AA0002" fill-opacity=".9"/><path d="M149 76l24 1-24-42z" fill="#CBEDFF" fill-opacity=".8"/><path d="M6 77l97 96-51-96z" fill="#A1000F"/><path d="M245-2v18l17 11z" fill="#4B0011" fill-opacity=".9"/><path d="M178 39V12l3 5z" fill="#FFF" fill-opacity=".7"/><path d="M215 80l-9 1 6-26z" fill="#B10000" fill-opacity=".5"/><path d="M36 45l9 6-12 12z" fill="#FBF5F6" fill-opacity=".5"/><path d="M145 32l-3-24v47z" fill="#E4F8FC" fill-opacity=".6"/><path d="M246 5l-4 10-20 2z" fill="#46FCFF" fill-opacity=".6"/><path d="M110 17H98l18 5z" fill="#150000" fill-opacity=".5"/><path d="M71 5L44 7 79-4z" fill="#FFF" fill-opacity=".5"/><path d="M94 77l39 19-67-19z" fill="#B20000" fill-opacity=".7"/><path d="M72 59l-5-1 5 24z" fill="#FFF" fill-opacity=".5"/><path d="M136 78l1-53-25 45z" fill="#D5F8FF" fill-opacity=".5"/><path d="M208 48l2 7 14-9z" fill="#5D0000" fill-opacity=".6"/><path d="M210 17h7l-9 20z" fill="#4E0004" fill-opacity=".7"/><path d="M103 76l1 12 27 7z" fill="#FFF" fill-opacity=".5"/><path d="M77 7v66l23 4z" fill="#C2EFFF" fill-opacity=".8"/><path d="M113 39l-5 19 5 42z" fill="#A50000" fill-opacity=".5"/><path d="M177 66l3 23 6 4zM214 62v27l41-76z" fill="#FFF" fill-opacity=".5"/><path d="M233 19l12 4 17-13z" fill="#3F0000" fill-opacity=".5"/><path d="M76 128l62-51h-22z" fill="#A20000" fill-opacity=".8"/><path d="M175 128l3-62 5 29z" fill="#FFFBFF" fill-opacity=".5"/><path d="M227 49l-7 3 2-26z" fill="#84000A" fill-opacity=".5"/><path d="M21 6l8 20V5z" fill="#59F3FF" fill-opacity=".6"/><path d="M144 25l-2 45 2 23z" fill="#FFF" fill-opacity=".5"/><path d="M178 42l-5-39v100z" fill="#820008" fill-opacity=".9"/><path d="M214 34l12 12-17 1z" fill="#99EAFF" fill-opacity=".5"/><path d="M72 74V2L41-63z" fill="#F7F7F7"/><path d="M5 2v26l-49-8z" fill="#5E0013"/><path d="M84 41L76 5h28z" fill="#7EE2FF" fill-opacity=".7"/><path d="M73 84l6-45-7-13z" fill="#A4000E" fill-opacity=".5"/><path d="M104 21l3 15 3-9z" fill="#D4C0C4" fill-opacity=".5"/><path d="M5 39l24-26L5 4z" fill="#79E2FF" fill-opacity=".7"/><path d="M144 63V16l6 19z" fill="#8C0006" fill-opacity=".7"/><path d="M226 33v82l6-94z" fill="#FAFCFB" fill-opacity=".8"/><path d="M107 20l6 48V15z" fill="#6F0000" fill-opacity=".5"/><path d="M69 77H39l-67 131z" fill="#A7000F"/><path d="M180 2l6 4-6 28z" fill="#400000" fill-opacity=".6"/><path d="M73 78l-14 7h17z" fill="#FFFCFB" fill-opacity=".6"/><path d="M108 20l-6 23-2-27z" fill="#37000C" fill-opacity=".4"/><path d="M109 78h11l8-2z" fill="#004E5F" fill-opacity=".5"/><path d="M70 70l-1-8-8 26z" fill="#AC0000" fill-opacity=".6"/><path d="M131 5l36-1-35-33z" fill="#4B0014"/><path d="M225 35h-4l1 13z" fill="#680000" fill-opacity=".6"/><path d="M206 17l13 6 35-6z" fill="#390000" fill-opacity=".5"/><path d="M180 78l6 4-3-46z" fill="#AF0000" fill-opacity=".6"/><path d="M113 18l18 53-18 6z" fill="#CAEAFF" fill-opacity=".7"/><path d="M-2 74l15 7-9 1z" fill="#D20003" fill-opacity=".7"/><path d="M146 19l-9-3v13z" fill="#200" fill-opacity=".5"/><path d="M251 52h-37v59z" fill="#FBFCFB" fill-opacity=".7"/></svg>