<svg version="1.0" xmlns="http://www.w3.org/2000/svg" width="250" height="82" viewBox="0 0 2500 820"><g fill="#b10013"><path d="M20 800L0 780V40l20-20L40 0h260l20 20 20 20v560h320l20 20 20 20v149l-22 15-22 16H40l-20-20zm630-90v-60H290V50H50v720h600v-60zM740 800l-20-20V40l20-20 20-20h886l44 23 45 22 22 40 23 40v664l-22 15-22 16h-256l-20-20-20-20V231l-10-6-10-6v570l-22 15-22 16h-256l-20-20-20-20V220h-20v569l-22 15-22 16H760l-20-20zm270-330V170h120v600h240V170h83l19 17 18 16v567h240V149l-15-30-16-30-32-19-32-20H770v720h240V470zM1820 800l-20-20V40l20-20 20-20h620l20 20 20 20v147l-18 16-19 17h-323v80h80l20 20 20 20v140l-20 20-20 20h-80v260l-20 20-20 20h-260l-20-20zm270-180V470h120V350h-120V170h360V50h-600v720h240V620z"/></g><g fill="#b5e4ff"><path d="M50 410V50h240v600h360v120H50V410zM770 410V50h865l32 20 32 19 16 30 15 30v621h-240V203l-18-16-19-17h-83v600h-240V170h-120v600H770V410zM1850 410V50h600v120h-360v180h120v120h-120v300h-240V410z"/></g></svg>