<svg xmlns="http://www.w3.org/2000/svg" viewBox="0 0 256 249.29675810473816" clip-path="url(#clip)" width="512" height="498.5935162094763"><defs><clipPath id="clip" clipPathUnits="objectBoundingBox"><rect x="0" y="0" width="256" height="249.29675810473816"/></clipPath></defs><rect x="0" y="0" width="256" height="249.29675810473816" fill="rgb(255, 255, 255)"/><path d="M445,41L225,221L201,30Z" fill="rgb(183, 33, 18)" fill-opacity="0.68"/><path d="M199,91L6,25L5,217Z" fill="rgb(198, 47, 30)" fill-opacity="0.54"/><path d="M207,42L208,86L123,114Z" fill="rgb(222, 52, 35)" fill-opacity="0.77"/><path d="M36,214L38,80L225,200Z" fill="rgb(225, 227, 228)" fill-opacity="0.95"/><path d="M251,201L251,25L543,245Z" fill="rgb(254, 254, 253)" fill-opacity="1.00"/><path d="M10,15L107,87L4,119Z" fill="rgb(218, 0, 0)" fill-opacity="0.34"/><path d="M221,192L200,84L220,81Z" fill="rgb(224, 236, 240)" fill-opacity="0.78"/><path d="M9,216L42,152L6,83Z" fill="rgb(213, 38, 15)" fill-opacity="0.56"/><path d="M216,214L240,7L252,197Z" fill="rgb(166, 4, 0)" fill-opacity="0.46"/><path d="M129,101L249,14L40,39Z" fill="rgb(242, 240, 242)" fill-opacity="0.97"/><path d="M36,214L37,160L12,208Z" fill="rgb(209, 23, 0)" fill-opacity="0.59"/><path d="M38,73L34,108L100,119Z" fill="rgb(212, 216, 216)" fill-opacity="0.79"/><path d="M18,212L4,201L7,282Z" fill="rgb(254, 253, 253)" fill-opacity="0.99"/><path d="M244,210L236,252L215,213Z" fill="rgb(254, 253, 253)" fill-opacity="1.00"/><path d="M245,19L203,48L251,138Z" fill="rgb(211, 49, 30)" fill-opacity="0.48"/><path d="M175,102L57,86L130,141Z" fill="rgb(227, 17, 0)" fill-opacity="0.43"/><path d="M158,118L213,78L96,111Z" fill="rgb(226, 81, 65)" fill-opacity="0.66"/><path d="M215,76L129,139L221,220Z" fill="rgb(214, 214, 214)" fill-opacity="0.68"/><path d="M37,82L8,85L37,145Z" fill="rgb(215, 68, 49)" fill-opacity="0.83"/><path d="M-1,46L-29,-41L34,4Z" fill="rgb(254, 253, 253)" fill-opacity="1.00"/><path d="M236,217L37,136L37,201Z" fill="rgb(231, 233, 234)" fill-opacity="0.86"/><path d="M19,26L67,54L6,91Z" fill="rgb(223, 66, 42)" fill-opacity="0.55"/><path d="M239,212L251,202L220,193Z" fill="rgb(184, 55, 42)" fill-opacity="0.89"/><path d="M54,47L51,84L119,95Z" fill="rgb(226, 81, 65)" fill-opacity="0.89"/><path d="M56,50L95,71L65,10Z" fill="rgb(242, 243, 245)" fill-opacity="0.71"/><path d="M247,32L226,27L237,70Z" fill="rgb(232, 83, 67)" fill-opacity="0.64"/><path d="M222,34L226,72L127,103Z" fill="rgb(226, 83, 68)" fill-opacity="1.00"/><path d="M251,141L221,44L221,182Z" fill="rgb(185, 52, 38)" fill-opacity="0.92"/><path d="M187,34L176,-100L251,25Z" fill="rgb(253, 253, 253)" fill-opacity="1.00"/><path d="M221,194L248,208L222,211Z" fill="rgb(179, 41, 25)" fill-opacity="0.60"/><path d="M43,83L120,133L142,184Z" fill="rgb(193, 193, 194)" fill-opacity="0.50"/><path d="M219,38L219,76L252,41Z" fill="rgb(229, 82, 67)" fill-opacity="0.78"/><path d="M221,106L187,146L221,64Z" fill="rgb(228, 231, 233)" fill-opacity="0.56"/><path d="M13,211L35,158L38,211Z" fill="rgb(216, 75, 58)" fill-opacity="0.67"/><path d="M7,180L7,157L10,210Z" fill="rgb(216, 33, 9)" fill-opacity="0.44"/><path d="M-24,-96L67,25L-4,28Z" fill="rgb(254, 254, 254)" fill-opacity="1.00"/><path d="M161,32L111,89L131,103Z" fill="rgb(241, 241, 243)" fill-opacity="0.77"/><path d="M6,77L6,35L45,41Z" fill="rgb(223, 75, 58)" fill-opacity="0.69"/><path d="M190,58L234,26L252,33Z" fill="rgb(229, 79, 64)" fill-opacity="0.46"/><path d="M37,80L38,117L76,117Z" fill="rgb(239, 249, 249)" fill-opacity="0.47"/><path d="M-4,52L8,30L8,36Z" fill="rgb(254, 249, 249)" fill-opacity="0.75"/><path d="M257,0L255,59L249,31Z" fill="rgb(254, 252, 252)" fill-opacity="1.00"/><path d="M17,217L29,210L56,215Z" fill="rgb(254, 252, 252)" fill-opacity="0.78"/><path d="M45,41L24,24L127,28Z" fill="rgb(239, 238, 240)" fill-opacity="0.61"/><path d="M242,50L250,62L251,188Z" fill="rgb(167, 27, 13)" fill-opacity="0.52"/><path d="M35,82L16,84L38,70Z" fill="rgb(208, 61, 37)" fill-opacity="0.52"/><path d="M252,50L249,86L212,71Z" fill="rgb(185, 53, 39)" fill-opacity="0.48"/><path d="M220,224L200,246L221,183Z" fill="rgb(250, 252, 253)" fill-opacity="0.49"/><path d="M18,218L0,218L-5,183Z" fill="rgb(254, 253, 253)" fill-opacity="0.70"/><path d="M74,99L130,140L103,83Z" fill="rgb(226, 77, 61)" fill-opacity="0.70"/></svg>