<svg xmlns="http://www.w3.org/2000/svg" viewBox="0 0 256 256" clip-path="url(#clip)" width="512" height="512"><defs><clipPath id="clip" clipPathUnits="objectBoundingBox"><rect x="0" y="0" width="256" height="256"/></clipPath></defs><rect x="0" y="0" width="256" height="256" fill="rgb(255, 255, 255)"/><path d="M71,12L182,37L126,162Z" fill="rgb(78, 78, 78)" fill-opacity="0.72"/><path d="M179,92L114,93L176,106Z" fill="rgb(0, 0, 0)" fill-opacity="0.84"/><path d="M90,26L103,105L90,152Z" fill="rgb(0, 0, 0)" fill-opacity="0.86"/><path d="M131,87L187,48L160,93Z" fill="rgb(255, 255, 255)" fill-opacity="0.82"/><path d="M121,162L123,21L134,140Z" fill="rgb(4, 4, 4)" fill-opacity="0.91"/><path d="M150,25L94,21L153,44Z" fill="rgb(0, 0, 0)" fill-opacity="0.43"/><path d="M101,137L101,86L88,129Z" fill="rgb(0, 0, 0)" fill-opacity="0.90"/><path d="M208,100L131,106L133,145Z" fill="rgb(255, 255, 255)" fill-opacity="0.54"/><path d="M147,11L194,44L159,45Z" fill="rgb(255, 255, 255)" fill-opacity="0.94"/><path d="M154,105L118,99L175,92Z" fill="rgb(0, 0, 0)" fill-opacity="0.56"/><path d="M127,87L160,37L157,71Z" fill="rgb(0, 0, 0)" fill-opacity="0.63"/><path d="M16,220L203,231L173,213Z" fill="rgb(166, 166, 166)" fill-opacity="0.54"/><path d="M129,138L123,155L139,164Z" fill="rgb(0, 0, 0)" fill-opacity="0.46"/><path d="M102,75L101,34L142,33Z" fill="rgb(255, 255, 255)" fill-opacity="0.68"/><path d="M90,27L96,81L105,21Z" fill="rgb(0, 0, 0)" fill-opacity="0.75"/><path d="M183,53L133,23L147,61Z" fill="rgb(0, 0, 0)" fill-opacity="0.53"/><path d="M121,158L99,85L121,86Z" fill="rgb(255, 255, 255)" fill-opacity="0.82"/><path d="M88,69L25,-20L91,-15Z" fill="rgb(254, 254, 254)" fill-opacity="0.99"/><path d="M126,73L86,70L136,94Z" fill="rgb(0, 0, 0)" fill-opacity="0.51"/><path d="M133,44L162,62L116,51Z" fill="rgb(0, 0, 0)" fill-opacity="0.71"/><path d="M152,40L121,57L181,57Z" fill="rgb(0, 0, 0)" fill-opacity="0.66"/><path d="M155,37L163,46L251,35Z" fill="rgb(255, 255, 255)" fill-opacity="0.64"/><path d="M133,62L97,84L137,81Z" fill="rgb(0, 0, 0)" fill-opacity="0.65"/><path d="M135,78L155,91L132,93Z" fill="rgb(253, 253, 253)" fill-opacity="0.58"/><path d="M147,64L129,74L140,52Z" fill="rgb(253, 253, 253)" fill-opacity="0.52"/><path d="M89,114L89,72L108,72Z" fill="rgb(0, 0, 0)" fill-opacity="0.58"/><path d="M62,214L117,224L53,233Z" fill="rgb(163, 163, 163)" fill-opacity="0.47"/><path d="M154,73L194,67L162,55Z" fill="rgb(255, 255, 255)" fill-opacity="0.70"/><path d="M120,81L100,84L104,135Z" fill="rgb(255, 255, 255)" fill-opacity="0.67"/><path d="M83,-22L113,22L84,23Z" fill="rgb(251, 251, 251)" fill-opacity="0.93"/><path d="M122,157L133,86L133,157Z" fill="rgb(0, 0, 0)" fill-opacity="0.81"/><path d="M144,46L96,34L144,38Z" fill="rgb(255, 255, 255)" fill-opacity="0.75"/><path d="M161,59L142,80L108,84Z" fill="rgb(0, 0, 0)" fill-opacity="0.73"/><path d="M122,162L60,106L76,151Z" fill="rgb(255, 255, 255)" fill-opacity="0.88"/><path d="M134,73L123,42L120,74Z" fill="rgb(0, 0, 0)" fill-opacity="0.49"/><path d="M156,103L133,145L134,103Z" fill="rgb(255, 255, 255)" fill-opacity="0.67"/><path d="M136,21L91,23L116,36Z" fill="rgb(0, 0, 0)" fill-opacity="0.47"/><path d="M123,33L119,69L100,73Z" fill="rgb(255, 255, 255)" fill-opacity="0.54"/><path d="M109,73L120,44L121,66Z" fill="rgb(255, 255, 255)" fill-opacity="0.58"/><path d="M132,59L148,56L140,71Z" fill="rgb(255, 255, 255)" fill-opacity="0.49"/><path d="M99,55L121,35L121,74Z" fill="rgb(255, 255, 255)" fill-opacity="0.62"/><path d="M94,35L155,32L91,23Z" fill="rgb(0, 0, 0)" fill-opacity="0.64"/><path d="M127,45L125,65L152,47Z" fill="rgb(0, 0, 0)" fill-opacity="0.52"/><path d="M142,218L145,232L145,218Z" fill="rgb(67, 67, 67)" fill-opacity="0.61"/><path d="M168,45L141,23L228,42Z" fill="rgb(254, 254, 254)" fill-opacity="0.88"/><path d="M131,34L147,44L105,50Z" fill="rgb(255, 255, 255)" fill-opacity="0.44"/><path d="M80,171L63,135L103,135Z" fill="rgb(255, 255, 255)" fill-opacity="1.00"/><path d="M128,227L132,227L125,223Z" fill="rgb(32, 32, 32)" fill-opacity="0.65"/><path d="M133,151L131,177L170,172Z" fill="rgb(254, 254, 254)" fill-opacity="0.80"/><path d="M142,24L98,23L148,40Z" fill="rgb(1, 1, 1)" fill-opacity="0.82"/><path d="M123,107L129,92L171,92Z" fill="rgb(0, 0, 0)" fill-opacity="0.51"/><path d="M100,96L102,116L121,125Z" fill="rgb(255, 255, 255)" fill-opacity="0.57"/><path d="M159,44L152,18L163,46Z" fill="rgb(255, 255, 255)" fill-opacity="0.40"/><path d="M119,152L125,163L94,178Z" fill="rgb(253, 253, 253)" fill-opacity="0.83"/><path d="M147,79L149,27L159,63Z" fill="rgb(0, 0, 0)" fill-opacity="0.55"/><path d="M135,35L101,70L101,34Z" fill="rgb(255, 255, 255)" fill-opacity="0.46"/><path d="M125,79L147,78L146,63Z" fill="rgb(0, 0, 0)" fill-opacity="0.61"/><path d="M133,226L135,215L136,230Z" fill="rgb(71, 71, 71)" fill-opacity="0.44"/><path d="M58,227L93,227L90,212Z" fill="rgb(161, 161, 161)" fill-opacity="0.56"/><path d="M190,230L187,214L205,233Z" fill="rgb(254, 254, 254)" fill-opacity="0.63"/><path d="M131,94L133,46L119,53Z" fill="rgb(0, 0, 0)" fill-opacity="0.50"/><path d="M178,82L268,6L178,23Z" fill="rgb(255, 255, 255)" fill-opacity="1.00"/><path d="M146,208L164,228L177,218Z" fill="rgb(156, 156, 156)" fill-opacity="0.46"/><path d="M104,232L98,215L125,232Z" fill="rgb(234, 234, 234)" fill-opacity="0.53"/><path d="M102,63L89,127L95,19Z" fill="rgb(0, 0, 0)" fill-opacity="0.65"/><path d="M99,72L134,88L120,72Z" fill="rgb(0, 0, 0)" fill-opacity="0.58"/><path d="M134,46L132,78L120,46Z" fill="rgb(0, 0, 0)" fill-opacity="0.68"/><path d="M176,217L188,216L190,229Z" fill="rgb(132, 132, 132)" fill-opacity="0.50"/><path d="M94,112L94,57L104,76Z" fill="rgb(0, 0, 0)" fill-opacity="0.65"/><path d="M103,221L97,215L97,231Z" fill="rgb(157, 157, 157)" fill-opacity="0.53"/><path d="M60,225L18,339L25,111Z" fill="rgb(255, 255, 255)" fill-opacity="0.93"/><path d="M60,213L60,228L63,217Z" fill="rgb(63, 63, 63)" fill-opacity="0.55"/><path d="M178,56L178,45L149,58Z" fill="rgb(0, 0, 0)" fill-opacity="0.66"/><path d="M306,86L162,57L144,92Z" fill="rgb(254, 254, 254)" fill-opacity="1.00"/><path d="M86,31L146,27L156,36Z" fill="rgb(0, 0, 0)" fill-opacity="0.61"/><path d="M77,231L74,219L83,219Z" fill="rgb(255, 255, 255)" fill-opacity="0.44"/><path d="M226,-32L139,24L159,33Z" fill="rgb(254, 254, 254)" fill-opacity="1.00"/><path d="M180,51L172,-19L173,37Z" fill="rgb(254, 254, 254)" fill-opacity="0.81"/><path d="M142,41L158,41L143,25Z" fill="rgb(0, 0, 0)" fill-opacity="0.66"/><path d="M69,223L62,228L63,216Z" fill="rgb(247, 247, 247)" fill-opacity="0.51"/><path d="M172,103L210,109L130,104Z" fill="rgb(255, 255, 255)" fill-opacity="0.59"/><path d="M123,228L69,227L24,248Z" fill="rgb(255, 255, 255)" fill-opacity="0.77"/><path d="M160,104L121,92L178,92Z" fill="rgb(0, 0, 0)" fill-opacity="0.54"/><path d="M188,227L298,248L145,227Z" fill="rgb(254, 254, 254)" fill-opacity="0.92"/><path d="M121,69L121,134L136,97Z" fill="rgb(0, 0, 0)" fill-opacity="0.81"/><path d="M118,71L101,72L122,40Z" fill="rgb(255, 255, 255)" fill-opacity="0.45"/><path d="M121,82L120,128L100,97Z" fill="rgb(255, 255, 255)" fill-opacity="0.85"/><path d="M143,161L146,236L165,173Z" fill="rgb(255, 255, 255)" fill-opacity="0.83"/><path d="M180,224L179,215L182,227Z" fill="rgb(68, 68, 68)" fill-opacity="0.49"/><path d="M101,86L88,68L100,46Z" fill="rgb(0, 0, 0)" fill-opacity="0.52"/><path d="M133,146L187,103L133,103Z" fill="rgb(255, 255, 255)" fill-opacity="0.85"/><path d="M157,206L159,220L159,229Z" fill="rgb(96, 96, 96)" fill-opacity="0.53"/><path d="M106,22L152,19L131,23Z" fill="rgb(255, 255, 255)" fill-opacity="0.50"/><path d="M123,225L98,229L106,206Z" fill="rgb(204, 204, 204)" fill-opacity="0.49"/><path d="M96,235L92,218L98,219Z" fill="rgb(235, 235, 235)" fill-opacity="0.72"/><path d="M126,45L120,47L151,59Z" fill="rgb(2, 2, 2)" fill-opacity="0.59"/><path d="M163,45L188,19L157,42Z" fill="rgb(255, 255, 255)" fill-opacity="0.63"/><path d="M91,124L85,145L28,138Z" fill="rgb(253, 253, 253)" fill-opacity="0.57"/><path d="M137,60L135,55L132,61Z" fill="rgb(243, 243, 243)" fill-opacity="0.56"/><path d="M132,91L163,92L154,72Z" fill="rgb(254, 254, 254)" fill-opacity="0.78"/><path d="M80,216L62,230L75,217Z" fill="rgb(94, 94, 94)" fill-opacity="0.44"/><path d="M139,58L135,46L166,45Z" fill="rgb(0, 0, 0)" fill-opacity="0.48"/><path d="M58,218L148,158L101,158Z" fill="rgb(254, 254, 254)" fill-opacity="1.00"/><path d="M99,137L94,134L92,126Z" fill="rgb(12, 12, 12)" fill-opacity="0.50"/><path d="M146,206L132,208L140,232Z" fill="rgb(255, 255, 255)" fill-opacity="0.63"/><path d="M163,54L156,36L144,68Z" fill="rgb(0, 0, 0)" fill-opacity="0.51"/><path d="M78,227L64,215L75,227Z" fill="rgb(85, 85, 85)" fill-opacity="0.55"/><path d="M185,217L190,217L184,218Z" fill="rgb(17, 17, 17)" fill-opacity="0.50"/><path d="M120,88L101,123L101,82Z" fill="rgb(255, 255, 255)" fill-opacity="0.73"/><path d="M179,103L121,103L176,92Z" fill="rgb(0, 0, 0)" fill-opacity="0.82"/><path d="M90,46L111,23L90,24Z" fill="rgb(0, 0, 0)" fill-opacity="0.53"/><path d="M153,199L125,219L92,204Z" fill="rgb(255, 255, 255)" fill-opacity="0.60"/><path d="M180,216L184,226L180,202Z" fill="rgb(255, 255, 255)" fill-opacity="0.64"/><path d="M141,230L145,224L146,231Z" fill="rgb(128, 128, 128)" fill-opacity="0.50"/><path d="M130,-34L62,21L133,23Z" fill="rgb(255, 255, 255)" fill-opacity="0.60"/><path d="M177,10L158,46L181,43Z" fill="rgb(254, 254, 254)" fill-opacity="0.53"/><path d="M170,233L176,233L163,194Z" fill="rgb(253, 253, 253)" fill-opacity="0.39"/><path d="M134,22L140,32L126,30Z" fill="rgb(0, 0, 0)" fill-opacity="0.46"/><path d="M100,34L120,64L122,35Z" fill="rgb(255, 255, 255)" fill-opacity="0.49"/><path d="M100,65L105,39L119,73Z" fill="rgb(255, 255, 255)" fill-opacity="0.65"/><path d="M140,35L144,42L104,48Z" fill="rgb(255, 255, 255)" fill-opacity="0.41"/><path d="M178,217L162,217L175,220Z" fill="rgb(6, 6, 6)" fill-opacity="0.39"/><path d="M63,225L61,222L58,231Z" fill="rgb(74, 74, 74)" fill-opacity="0.48"/><path d="M159,218L196,192L195,214Z" fill="rgb(255, 255, 255)" fill-opacity="0.58"/><path d="M162,75L170,55L178,73Z" fill="rgb(254, 254, 254)" fill-opacity="0.45"/><path d="M121,72L135,86L90,76Z" fill="rgb(0, 0, 0)" fill-opacity="0.41"/><path d="M101,94L100,58L100,137Z" fill="rgb(0, 0, 0)" fill-opacity="0.70"/><path d="M88,220L86,207L87,228Z" fill="rgb(75, 75, 75)" fill-opacity="0.60"/><path d="M103,217L106,214L106,222Z" fill="rgb(52, 52, 52)" fill-opacity="0.57"/><path d="M100,42L112,34L149,45Z" fill="rgb(255, 255, 255)" fill-opacity="0.67"/><path d="M132,68L145,64L135,56Z" fill="rgb(255, 255, 255)" fill-opacity="0.69"/><path d="M154,231L154,213L152,219Z" fill="rgb(16, 16, 16)" fill-opacity="0.54"/><path d="M96,136L101,131L101,83Z" fill="rgb(0, 0, 0)" fill-opacity="0.41"/><path d="M54,227L70,227L64,226Z" fill="rgb(70, 70, 70)" fill-opacity="0.42"/><path d="M133,87L133,81L149,89Z" fill="rgb(255, 255, 255)" fill-opacity="0.65"/><path d="M175,228L173,217L173,231Z" fill="rgb(100, 100, 100)" fill-opacity="0.52"/><path d="M178,142L366,5L178,71Z" fill="rgb(255, 255, 255)" fill-opacity="1.00"/><path d="M133,51L121,139L133,102Z" fill="rgb(0, 0, 0)" fill-opacity="0.69"/><path d="M186,227L183,224L186,222Z" fill="rgb(247, 247, 247)" fill-opacity="0.49"/><path d="M94,210L90,220L57,147Z" fill="rgb(254, 254, 254)" fill-opacity="0.83"/><path d="M119,218L115,221L133,269Z" fill="rgb(251, 251, 251)" fill-opacity="1.00"/><path d="M120,254L102,222L92,243Z" fill="rgb(255, 255, 255)" fill-opacity="0.56"/><path d="M144,219L148,207L142,216Z" fill="rgb(156, 156, 156)" fill-opacity="0.49"/><path d="M133,70L142,67L133,62Z" fill="rgb(255, 255, 255)" fill-opacity="0.59"/><path d="M177,57L176,45L127,56Z" fill="rgb(0, 0, 0)" fill-opacity="0.60"/><path d="M73,223L80,224L79,217Z" fill="rgb(253, 253, 253)" fill-opacity="0.53"/><path d="M112,221L136,218L115,217Z" fill="rgb(85, 85, 85)" fill-opacity="0.50"/><path d="M146,221L144,240L160,234Z" fill="rgb(255, 255, 255)" fill-opacity="0.58"/><path d="M121,51L105,72L120,71Z" fill="rgb(255, 255, 255)" fill-opacity="0.62"/><path d="M154,33L150,64L144,33Z" fill="rgb(0, 0, 0)" fill-opacity="0.54"/><path d="M101,43L112,34L134,34Z" fill="rgb(255, 255, 255)" fill-opacity="0.65"/><path d="M137,214L105,188L123,219Z" fill="rgb(255, 255, 255)" fill-opacity="0.65"/><path d="M129,68L115,83L96,82Z" fill="rgb(0, 0, 0)" fill-opacity="0.58"/><path d="M145,248L136,225L141,210Z" fill="rgb(255, 255, 255)" fill-opacity="0.63"/><path d="M90,74L89,55L71,57Z" fill="rgb(249, 249, 249)" fill-opacity="0.58"/><path d="M180,225L148,274L175,225Z" fill="rgb(254, 254, 254)" fill-opacity="0.81"/><path d="M124,86L110,73L153,74Z" fill="rgb(2, 2, 2)" fill-opacity="0.72"/><path d="M70,216L76,223L56,209Z" fill="rgb(251, 251, 251)" fill-opacity="0.48"/><path d="M88,203L85,220L54,177Z" fill="rgb(254, 254, 254)" fill-opacity="1.00"/><path d="M156,68L160,52L150,74Z" fill="rgb(0, 0, 0)" fill-opacity="0.54"/><path d="M73,211L70,227L71,265Z" fill="rgb(251, 251, 251)" fill-opacity="0.80"/><path d="M101,91L105,83L122,83Z" fill="rgb(255, 255, 255)" fill-opacity="0.81"/><path d="M92,23L133,34L97,34Z" fill="rgb(0, 0, 0)" fill-opacity="0.53"/><path d="M101,67L89,65L101,53Z" fill="rgb(0, 0, 0)" fill-opacity="0.70"/><path d="M121,46L122,58L155,55Z" fill="rgb(0, 0, 0)" fill-opacity="0.65"/><path d="M165,56L120,21L159,44Z" fill="rgb(0, 0, 0)" fill-opacity="0.61"/><path d="M90,107L102,76L90,129Z" fill="rgb(0, 0, 0)" fill-opacity="0.59"/><path d="M152,31L160,43L173,45Z" fill="rgb(253, 253, 253)" fill-opacity="0.49"/><path d="M160,57L194,57L157,71Z" fill="rgb(254, 254, 254)" fill-opacity="0.75"/><path d="M101,135L88,135L100,109Z" fill="rgb(0, 0, 0)" fill-opacity="0.46"/><path d="M157,201L158,236L153,234Z" fill="rgb(255, 255, 255)" fill-opacity="0.47"/><path d="M114,219L113,225L115,229Z" fill="rgb(58, 58, 58)" fill-opacity="0.53"/><path d="M189,227L184,227L188,224Z" fill="rgb(67, 67, 67)" fill-opacity="0.53"/><path d="M148,66L99,83L144,79Z" fill="rgb(3, 3, 3)" fill-opacity="0.97"/><path d="M121,69L126,53L131,73Z" fill="rgb(0, 0, 0)" fill-opacity="0.57"/><path d="M135,92L133,81L213,92Z" fill="rgb(255, 255, 255)" fill-opacity="0.56"/><path d="M168,45L177,57L126,57Z" fill="rgb(0, 0, 0)" fill-opacity="0.69"/><path d="M163,223L164,193L166,222Z" fill="rgb(255, 255, 255)" fill-opacity="0.52"/><path d="M3,217L59,301L59,214Z" fill="rgb(255, 255, 255)" fill-opacity="1.00"/><path d="M101,72L101,30L90,35Z" fill="rgb(0, 0, 0)" fill-opacity="0.60"/><path d="M49,218L-51,202L85,215Z" fill="rgb(254, 254, 254)" fill-opacity="0.96"/><path d="M139,36L163,52L156,39Z" fill="rgb(0, 0, 0)" fill-opacity="0.46"/><path d="M174,217L154,210L204,216Z" fill="rgb(255, 255, 255)" fill-opacity="0.52"/><path d="M141,91L186,51L155,70Z" fill="rgb(253, 253, 253)" fill-opacity="0.56"/><path d="M122,93L153,92L175,93Z" fill="rgb(0, 0, 0)" fill-opacity="0.60"/><path d="M113,225L111,224L113,196Z" fill="rgb(255, 255, 255)" fill-opacity="0.61"/><path d="M90,104L89,16L84,202Z" fill="rgb(245, 245, 245)" fill-opacity="0.38"/><path d="M125,221L127,226L127,216Z" fill="rgb(31, 31, 31)" fill-opacity="0.49"/><path d="M121,47L121,60L174,46Z" fill="rgb(0, 0, 0)" fill-opacity="0.53"/><path d="M121,147L59,137L121,134Z" fill="rgb(255, 255, 255)" fill-opacity="0.96"/><path d="M252,230L192,251L188,215Z" fill="rgb(255, 255, 255)" fill-opacity="0.62"/><path d="M142,45L143,39L133,34Z" fill="rgb(245, 245, 245)" fill-opacity="0.53"/><path d="M112,243L108,207L106,225Z" fill="rgb(254, 254, 254)" fill-opacity="0.70"/><path d="M130,216L143,218L141,177Z" fill="rgb(255, 255, 255)" fill-opacity="0.82"/><path d="M113,212L112,215L101,215Z" fill="rgb(167, 167, 167)" fill-opacity="0.46"/><path d="M86,221L100,214L96,218Z" fill="rgb(124, 124, 124)" fill-opacity="0.41"/><path d="M133,37L101,47L101,37Z" fill="rgb(255, 255, 255)" fill-opacity="0.59"/><path d="M90,48L105,79L90,94Z" fill="rgb(0, 0, 0)" fill-opacity="0.63"/><path d="M132,220L130,226L135,223Z" fill="rgb(255, 255, 255)" fill-opacity="0.53"/><path d="M163,224L161,231L163,203Z" fill="rgb(35, 35, 35)" fill-opacity="0.40"/></svg>