<svg xmlns="http://www.w3.org/2000/svg" viewBox="0 0 256 256" clip-path="url(#clip)" width="512" height="512"><defs><clipPath id="clip" clipPathUnits="objectBoundingBox"><rect x="0" y="0" width="256" height="256"/></clipPath></defs><rect x="0" y="0" width="256" height="256" fill="rgb(235, 247, 252)"/><path d="M167,375L343,-78L-82,69Z" fill="rgb(66, 179, 232)" fill-opacity="0.88"/><path d="M261,-80L130,-39L267,83Z" fill="rgb(255, 255, 255)" fill-opacity="0.96"/><path d="M193,73L43,131L84,150Z" fill="rgb(255, 255, 255)" fill-opacity="0.92"/><path d="M189,68L108,157L171,197Z" fill="rgb(248, 252, 254)" fill-opacity="0.99"/><path d="M-58,370L4,219L113,258Z" fill="rgb(253, 254, 254)" fill-opacity="1.00"/><path d="M131,276L296,248L241,207Z" fill="rgb(253, 254, 254)" fill-opacity="0.98"/><path d="M77,252L219,222L-60,80Z" fill="rgb(0, 148, 215)" fill-opacity="0.60"/><path d="M-17,125L7,-72L46,16Z" fill="rgb(253, 254, 254)" fill-opacity="0.98"/><path d="M9,177L48,23L237,-54Z" fill="rgb(6, 160, 234)" fill-opacity="0.56"/><path d="M78,80L249,78L179,8Z" fill="rgb(32, 169, 234)" fill-opacity="0.91"/><path d="M287,133L178,249L188,40Z" fill="rgb(0, 153, 222)" fill-opacity="0.56"/><path d="M154,3L206,18L94,-67Z" fill="rgb(251, 253, 255)" fill-opacity="0.92"/><path d="M181,134L184,75L137,91Z" fill="rgb(255, 255, 255)" fill-opacity="0.63"/><path d="M64,147L112,145L104,169Z" fill="rgb(11, 157, 223)" fill-opacity="0.64"/><path d="M14,64L176,76L66,123Z" fill="rgb(32, 167, 231)" fill-opacity="0.82"/><path d="M236,53L284,23L262,122Z" fill="rgb(248, 252, 254)" fill-opacity="1.00"/><path d="M12,62L16,-70L76,2Z" fill="rgb(252, 254, 254)" fill-opacity="0.97"/><path d="M239,63L132,-8L211,28Z" fill="rgb(40, 173, 238)" fill-opacity="0.77"/><path d="M165,275L36,219L13,188Z" fill="rgb(30, 161, 219)" fill-opacity="0.85"/><path d="M7,175L49,25L11,73Z" fill="rgb(26, 165, 231)" fill-opacity="0.76"/><path d="M92,252L157,253L231,204Z" fill="rgb(23, 157, 217)" fill-opacity="0.84"/><path d="M163,197L206,229L188,157Z" fill="rgb(30, 162, 222)" fill-opacity="0.89"/><path d="M245,189L316,238L255,145Z" fill="rgb(247, 251, 254)" fill-opacity="0.94"/><path d="M91,254L34,221L-44,236Z" fill="rgb(253, 254, 254)" fill-opacity="0.96"/><path d="M53,128L46,141L89,143Z" fill="rgb(255, 255, 255)" fill-opacity="0.52"/><path d="M-5,144L5,11L8,75Z" fill="rgb(248, 252, 254)" fill-opacity="1.00"/><path d="M20,192L211,226L192,239Z" fill="rgb(30, 162, 221)" fill-opacity="0.99"/><path d="M126,135L166,198L107,156Z" fill="rgb(255, 255, 255)" fill-opacity="0.53"/><path d="M102,102L3,98L6,155Z" fill="rgb(33, 166, 229)" fill-opacity="0.92"/><path d="M-4,114L8,183L-4,214Z" fill="rgb(245, 251, 253)" fill-opacity="0.97"/><path d="M174,169L181,241L185,121Z" fill="rgb(27, 162, 223)" fill-opacity="0.70"/><path d="M147,108L109,132L181,81Z" fill="rgb(250, 253, 254)" fill-opacity="0.75"/><path d="M23,201L5,167L154,211Z" fill="rgb(31, 163, 223)" fill-opacity="0.99"/><path d="M198,242L239,195L361,172Z" fill="rgb(251, 253, 254)" fill-opacity="1.00"/><path d="M169,250L183,242L175,260Z" fill="rgb(249, 251, 251)" fill-opacity="0.50"/><path d="M143,256L212,327L193,244Z" fill="rgb(249, 252, 254)" fill-opacity="1.00"/><path d="M193,229L158,252L178,246Z" fill="rgb(15, 152, 214)" fill-opacity="0.62"/><path d="M251,98L248,83L224,75Z" fill="rgb(3, 158, 230)" fill-opacity="0.59"/><path d="M121,1L87,6L64,17Z" fill="rgb(23, 168, 239)" fill-opacity="0.59"/><path d="M157,105L109,133L136,127Z" fill="rgb(10, 158, 226)" fill-opacity="0.54"/><path d="M76,152L112,148L144,118Z" fill="rgb(5, 155, 223)" fill-opacity="0.52"/><path d="M173,5L195,21L181,-2Z" fill="rgb(255, 255, 255)" fill-opacity="0.46"/><path d="M-2,181L4,323L43,223Z" fill="rgb(255, 255, 255)" fill-opacity="0.85"/><path d="M165,74L249,88L246,77Z" fill="rgb(33, 169, 234)" fill-opacity="0.55"/><path d="M109,152L133,129L121,168Z" fill="rgb(255, 255, 255)" fill-opacity="0.58"/><path d="M232,53L253,87L262,-67Z" fill="rgb(253, 254, 254)" fill-opacity="1.00"/><path d="M154,191L201,234L175,194Z" fill="rgb(30, 162, 221)" fill-opacity="0.88"/><path d="M152,89L85,117L128,95Z" fill="rgb(255, 255, 255)" fill-opacity="0.50"/><path d="M104,164L100,152L143,184Z" fill="rgb(7, 154, 220)" fill-opacity="0.51"/><path d="M136,62L197,19L253,100Z" fill="rgb(35, 170, 234)" fill-opacity="0.85"/></svg>